<svg width="86" height="100" viewBox="0 0 86 100" fill="none" xmlns="http://www.w3.org/2000/svg">
<mask id="path-1-outside-1_146_58" maskUnits="userSpaceOnUse" x="0.333344" y="-2" width="86" height="103" fill="black">
<rect fill="white" x="0.333344" y="-2" width="86" height="103"/>
<path fill-rule="evenodd" clip-rule="evenodd" d="M22.1667 100H1.33334V62.5H22.1667V69.7292C24.825 68.9042 27.675 67.6667 29.5208 66.8583C32.1958 65.6917 34.7667 65.1208 37.3833 65.1208C42.4417 65.1208 46.5708 67.2 55.3125 70.1417C57.9792 71.0333 59.7958 73.125 60.2083 75.5833C64.8917 71.9875 72.375 66.1792 72.4458 66.125C73.9333 64.9417 75.6667 64.3167 77.4458 64.3167C81.4125 64.3167 84.7417 67.4958 84.7417 71.4333C84.7417 73.475 83.8292 75.5042 82.1292 77.0833C76.3875 82.4167 71.9417 86.3875 68.0167 89.8917C65.6833 91.9792 63.575 93.8583 61.5667 95.6958C58.4458 98.5583 55.2417 99.8875 51.4792 99.8875C49.7917 99.8875 48.0125 99.6167 46.0292 99.0542C34.475 95.7917 27.3458 94.7375 22.1667 94.45V100V100ZM18 66.6667H5.50001V95.8333H18V66.6667ZM22.1667 90.2667C30.8833 90.7583 40.5208 93.1667 47.1625 95.0458C50.5667 96.0083 54.5 96.5208 58.7542 92.625C64.0833 87.7417 70.0958 82.5708 79.2917 74.0292C82.725 70.8417 78.55 66.6 75.0333 69.3917C75.0333 69.3917 62.6958 78.9708 59.6625 81.2375C58.0833 82.425 56.7667 83.4 54.8792 83.4C54.4333 83.4 53.95 83.3458 53.425 83.225C50.6958 82.5958 45.5792 81.4542 41.9458 80.3042C39.55 79.5417 40.4 76.1667 43.0625 76.7292C44.925 77.1167 49.7042 78.1875 52.2333 78.8958C56.4708 80.0667 57.55 75.2833 53.9917 74.0958C51.65 73.3042 51.7542 73.2708 46.1208 71.325C40.7 69.4458 36.8958 68.1875 31.1833 70.675C28.5208 71.8333 25.2167 73.2417 22.1667 74.0667V90.2667V90.2667ZM37.9583 7.29583L51.3333 0L80.5 16.0833V48.0708L51.3333 63.6333L22.1667 48.0708V15.9083L37.9333 7.30833L37.9417 7.2875L37.9583 7.29583V7.29583ZM49.25 32.3583L26.3333 20.425V45.5708L49.25 57.8V32.3583V32.3583ZM53.4167 32.3625V57.8L76.3333 45.5708V20.5708L53.4167 32.3625ZM60.7917 23.8833L38 12.0167L28.825 17.025L51.3417 28.7458L60.7917 23.8833ZM42.4083 9.6125L65.3292 21.5458L73.8375 17.1667L51.3208 4.75417L42.4083 9.6125V9.6125Z"/>
</mask>
<path fill-rule="evenodd" clip-rule="evenodd" d="M22.1667 100H1.33334V62.5H22.1667V69.7292C24.825 68.9042 27.675 67.6667 29.5208 66.8583C32.1958 65.6917 34.7667 65.1208 37.3833 65.1208C42.4417 65.1208 46.5708 67.2 55.3125 70.1417C57.9792 71.0333 59.7958 73.125 60.2083 75.5833C64.8917 71.9875 72.375 66.1792 72.4458 66.125C73.9333 64.9417 75.6667 64.3167 77.4458 64.3167C81.4125 64.3167 84.7417 67.4958 84.7417 71.4333C84.7417 73.475 83.8292 75.5042 82.1292 77.0833C76.3875 82.4167 71.9417 86.3875 68.0167 89.8917C65.6833 91.9792 63.575 93.8583 61.5667 95.6958C58.4458 98.5583 55.2417 99.8875 51.4792 99.8875C49.7917 99.8875 48.0125 99.6167 46.0292 99.0542C34.475 95.7917 27.3458 94.7375 22.1667 94.45V100V100ZM18 66.6667H5.50001V95.8333H18V66.6667ZM22.1667 90.2667C30.8833 90.7583 40.5208 93.1667 47.1625 95.0458C50.5667 96.0083 54.5 96.5208 58.7542 92.625C64.0833 87.7417 70.0958 82.5708 79.2917 74.0292C82.725 70.8417 78.55 66.6 75.0333 69.3917C75.0333 69.3917 62.6958 78.9708 59.6625 81.2375C58.0833 82.425 56.7667 83.4 54.8792 83.4C54.4333 83.4 53.95 83.3458 53.425 83.225C50.6958 82.5958 45.5792 81.4542 41.9458 80.3042C39.55 79.5417 40.4 76.1667 43.0625 76.7292C44.925 77.1167 49.7042 78.1875 52.2333 78.8958C56.4708 80.0667 57.55 75.2833 53.9917 74.0958C51.65 73.3042 51.7542 73.2708 46.1208 71.325C40.7 69.4458 36.8958 68.1875 31.1833 70.675C28.5208 71.8333 25.2167 73.2417 22.1667 74.0667V90.2667V90.2667ZM37.9583 7.29583L51.3333 0L80.5 16.0833V48.0708L51.3333 63.6333L22.1667 48.0708V15.9083L37.9333 7.30833L37.9417 7.2875L37.9583 7.29583V7.29583ZM49.25 32.3583L26.3333 20.425V45.5708L49.25 57.8V32.3583V32.3583ZM53.4167 32.3625V57.8L76.3333 45.5708V20.5708L53.4167 32.3625ZM60.7917 23.8833L38 12.0167L28.825 17.025L51.3417 28.7458L60.7917 23.8833ZM42.4083 9.6125L65.3292 21.5458L73.8375 17.1667L51.3208 4.75417L42.4083 9.6125V9.6125Z" fill="#357BCD"/>
<path fill-rule="evenodd" clip-rule="evenodd" d="M22.1667 100H1.33334V62.5H22.1667V69.7292C24.825 68.9042 27.675 67.6667 29.5208 66.8583C32.1958 65.6917 34.7667 65.1208 37.3833 65.1208C42.4417 65.1208 46.5708 67.2 55.3125 70.1417C57.9792 71.0333 59.7958 73.125 60.2083 75.5833C64.8917 71.9875 72.375 66.1792 72.4458 66.125C73.9333 64.9417 75.6667 64.3167 77.4458 64.3167C81.4125 64.3167 84.7417 67.4958 84.7417 71.4333C84.7417 73.475 83.8292 75.5042 82.1292 77.0833C76.3875 82.4167 71.9417 86.3875 68.0167 89.8917C65.6833 91.9792 63.575 93.8583 61.5667 95.6958C58.4458 98.5583 55.2417 99.8875 51.4792 99.8875C49.7917 99.8875 48.0125 99.6167 46.0292 99.0542C34.475 95.7917 27.3458 94.7375 22.1667 94.45V100V100ZM18 66.6667H5.50001V95.8333H18V66.6667ZM22.1667 90.2667C30.8833 90.7583 40.5208 93.1667 47.1625 95.0458C50.5667 96.0083 54.5 96.5208 58.7542 92.625C64.0833 87.7417 70.0958 82.5708 79.2917 74.0292C82.725 70.8417 78.55 66.6 75.0333 69.3917C75.0333 69.3917 62.6958 78.9708 59.6625 81.2375C58.0833 82.425 56.7667 83.4 54.8792 83.4C54.4333 83.4 53.95 83.3458 53.425 83.225C50.6958 82.5958 45.5792 81.4542 41.9458 80.3042C39.55 79.5417 40.4 76.1667 43.0625 76.7292C44.925 77.1167 49.7042 78.1875 52.2333 78.8958C56.4708 80.0667 57.55 75.2833 53.9917 74.0958C51.65 73.3042 51.7542 73.2708 46.1208 71.325C40.7 69.4458 36.8958 68.1875 31.1833 70.675C28.5208 71.8333 25.2167 73.2417 22.1667 74.0667V90.2667V90.2667ZM37.9583 7.29583L51.3333 0L80.5 16.0833V48.0708L51.3333 63.6333L22.1667 48.0708V15.9083L37.9333 7.30833L37.9417 7.2875L37.9583 7.29583V7.29583ZM49.25 32.3583L26.3333 20.425V45.5708L49.25 57.8V32.3583V32.3583ZM53.4167 32.3625V57.8L76.3333 45.5708V20.5708L53.4167 32.3625ZM60.7917 23.8833L38 12.0167L28.825 17.025L51.3417 28.7458L60.7917 23.8833ZM42.4083 9.6125L65.3292 21.5458L73.8375 17.1667L51.3208 4.75417L42.4083 9.6125V9.6125Z" stroke="#357BCD" stroke-width="2" mask="url(#path-1-outside-1_146_58)"/>
</svg>
