<svg width="40" height="40" viewBox="0 0 40 40" fill="none" xmlns="http://www.w3.org/2000/svg">
<path fill-rule="evenodd" clip-rule="evenodd" d="M29.885 15C30.3408 17.6967 29.4731 21.1883 26.6203 25.4317C24.1592 29.0917 29.4951 30.415 34.955 31.4083C39.851 32.2983 40.017 34.2167 39.999 37.5767L39.993 40H0.00878034L0.000783602 37.5383C-0.0152101 34.2017 0.166718 32.2933 5.04479 31.4083C10.3887 30.4367 16.0225 29.1117 13.4875 25.4317C10.5906 21.2233 9.69695 17.7183 10.1548 15H29.885ZM29.9969 13.3333H10.0048V6.64833C10.0048 5.93667 9.97284 5.155 9.14917 4.84C8.46944 4.57833 8.00562 3.99667 8.00562 3.33333C8.00562 2.41333 8.90127 1.66667 10.0048 1.66667C11.5042 1.66667 12.6658 3.07 11.6022 4.32833C11.0664 4.96 11.1944 5.34167 11.5562 5.785C12.3219 6.725 13.4275 7.5 15.0029 7.5C17.5219 7.5 18.8553 5.76333 19.1312 4.29333C19.2272 3.78167 19.2812 3.39833 18.6954 2.92333C18.2936 2.59833 18.0017 2.17 18.0017 1.66667C18.0017 0.746667 18.8973 0 20.0009 0C21.1044 0 22.0001 0.746667 22.0001 1.66667C22.0001 2.17 21.7062 2.59833 21.3044 2.92333C20.7186 3.39833 20.7726 3.78167 20.8685 4.29333C21.1464 5.76333 22.4779 7.5 24.9989 7.5C26.5723 7.5 27.6798 6.725 28.4435 5.785C28.8054 5.34167 28.9354 4.96 28.3996 4.32833C27.336 3.07 28.4975 1.66667 29.9969 1.66667C31.1005 1.66667 31.9961 2.41333 31.9961 3.33333C31.9961 3.99667 31.5323 4.57833 30.8526 4.84C30.0269 5.155 29.9969 5.93667 29.9969 6.64833V13.3333Z" fill="#357BCD"/>
</svg>
