<svg width="80" height="100" viewBox="0 0 80 100" fill="none" xmlns="http://www.w3.org/2000/svg">
<mask id="path-1-outside-1_145_56" maskUnits="userSpaceOnUse" x="0.5" y="-1" width="79" height="103" fill="black">
<rect fill="white" x="0.5" y="-1" width="79" height="103"/>
<path fill-rule="evenodd" clip-rule="evenodd" d="M11.875 72.175L2.5 67.0875L11.8083 54.3083L2.5 46.1417L22.1375 35.4667C22.9875 36.4292 23.8458 37.5667 24.6542 38.8292L9.72083 46.9458L14.6417 51.2667L27.3833 44.2417C27.8792 45.55 28.2833 46.9125 28.5583 48.3125L14.9708 55.8167L40.0458 68.7708L65 55.8333L51.8667 48.5625C52.1208 47.1167 52.4667 45.7833 52.9 44.5292L65.1208 51.2583L70.2625 46.6958L55.6792 38.9667C56.4417 37.8208 57.2958 36.7167 58.2375 35.6208L77.5 45.825L68.0792 54.1917L68.125 54.2167L77.5 67.0542L68.125 72.1542V85.0167L40 100L11.875 85.0167V72.175ZM42.0667 71.7833V94.1875L63.9625 82.525V74.4167L49.375 82.3542L42.0667 71.7833ZM16.0375 74.4333V82.525L37.9042 94.175V71.7875L30.625 82.3542L16.0375 74.4333ZM8.65417 65.7L29.3208 76.9167L33.9 70.275L13.1375 59.5458L8.65417 65.7ZM46.1042 70.3125L50.6708 76.9167L71.3417 65.675L66.8708 59.5458L46.1042 70.3125ZM41.1375 58.1667H38.9667C38.4 58.1667 37.85 57.975 37.475 57.6375L34.5917 55.7417H45.5125L42.6292 57.6375C42.2583 57.975 41.7083 58.1667 41.1375 58.1667ZM45.6167 53.3167H34.5542C33.8833 53.3167 33.3417 52.7792 33.3417 52.1083C33.3417 51.4375 33.8833 50.8958 34.5542 50.8958H45.6167C46.2875 50.8958 46.8292 51.4375 46.8292 52.1083C46.8292 52.7792 46.2875 53.3167 45.6167 53.3167ZM46.8125 48.4708H33.2917C33.2917 38.9 25.4917 34.7583 25.4917 26.1083C25.4917 17.0833 32.7667 12.1167 40.0458 12.1167C47.3292 12.1167 54.6167 17.0917 54.6167 26.1083C54.6167 34.7583 46.8167 38.7667 46.8125 48.4708ZM43.0583 44.3167C43.8417 40.3417 45.6583 37.2792 47.3 34.5C49.0667 31.525 50.4542 29.1708 50.4542 26.1083C50.4542 19.65 45.2167 16.2708 40.0458 16.2708C34.8833 16.2708 29.65 19.65 29.65 26.1083C29.65 29.1875 31.0542 31.575 32.8292 34.5875C34.4625 37.3542 36.2542 40.4042 37.0458 44.3167H43.0583ZM20.7375 26.3125H13.3542V22.1583H20.9292C20.7667 23.0708 20.6833 24.0125 20.6833 24.9667L20.7375 26.3125ZM66.75 26.3125H59.4125L59.4708 24.9667C59.4708 24.0125 59.3875 23.0708 59.2208 22.1583H66.75V26.3125ZM25.1542 13.7667C24.2083 14.7958 23.3875 15.925 22.7208 17.1375L16.725 12.8833L19.1333 9.49583L25.1542 13.7667ZM54.9833 13.7458L60.9708 9.49583L63.3792 12.8833L57.4208 17.1125C56.75 15.9042 55.9292 14.775 54.9833 13.7458ZM32.9 8.6625C31.575 9.14167 30.3208 9.75 29.1542 10.4667L25.9375 3.90417L29.675 2.07917L32.9 8.6625ZM47.2125 8.64583L50.4333 2.07917L54.1667 3.90417L50.9625 10.4458C49.7958 9.72917 48.5417 9.12083 47.2125 8.64583ZM42.1333 7.51667C41.4583 7.45 40.7708 7.41667 40.075 7.41667C39.3667 7.41667 38.6625 7.45417 37.9708 7.52083V0H42.1333V7.51667Z"/>
</mask>
<path fill-rule="evenodd" clip-rule="evenodd" d="M11.875 72.175L2.5 67.0875L11.8083 54.3083L2.5 46.1417L22.1375 35.4667C22.9875 36.4292 23.8458 37.5667 24.6542 38.8292L9.72083 46.9458L14.6417 51.2667L27.3833 44.2417C27.8792 45.55 28.2833 46.9125 28.5583 48.3125L14.9708 55.8167L40.0458 68.7708L65 55.8333L51.8667 48.5625C52.1208 47.1167 52.4667 45.7833 52.9 44.5292L65.1208 51.2583L70.2625 46.6958L55.6792 38.9667C56.4417 37.8208 57.2958 36.7167 58.2375 35.6208L77.5 45.825L68.0792 54.1917L68.125 54.2167L77.5 67.0542L68.125 72.1542V85.0167L40 100L11.875 85.0167V72.175ZM42.0667 71.7833V94.1875L63.9625 82.525V74.4167L49.375 82.3542L42.0667 71.7833ZM16.0375 74.4333V82.525L37.9042 94.175V71.7875L30.625 82.3542L16.0375 74.4333ZM8.65417 65.7L29.3208 76.9167L33.9 70.275L13.1375 59.5458L8.65417 65.7ZM46.1042 70.3125L50.6708 76.9167L71.3417 65.675L66.8708 59.5458L46.1042 70.3125ZM41.1375 58.1667H38.9667C38.4 58.1667 37.85 57.975 37.475 57.6375L34.5917 55.7417H45.5125L42.6292 57.6375C42.2583 57.975 41.7083 58.1667 41.1375 58.1667ZM45.6167 53.3167H34.5542C33.8833 53.3167 33.3417 52.7792 33.3417 52.1083C33.3417 51.4375 33.8833 50.8958 34.5542 50.8958H45.6167C46.2875 50.8958 46.8292 51.4375 46.8292 52.1083C46.8292 52.7792 46.2875 53.3167 45.6167 53.3167ZM46.8125 48.4708H33.2917C33.2917 38.9 25.4917 34.7583 25.4917 26.1083C25.4917 17.0833 32.7667 12.1167 40.0458 12.1167C47.3292 12.1167 54.6167 17.0917 54.6167 26.1083C54.6167 34.7583 46.8167 38.7667 46.8125 48.4708ZM43.0583 44.3167C43.8417 40.3417 45.6583 37.2792 47.3 34.5C49.0667 31.525 50.4542 29.1708 50.4542 26.1083C50.4542 19.65 45.2167 16.2708 40.0458 16.2708C34.8833 16.2708 29.65 19.65 29.65 26.1083C29.65 29.1875 31.0542 31.575 32.8292 34.5875C34.4625 37.3542 36.2542 40.4042 37.0458 44.3167H43.0583ZM20.7375 26.3125H13.3542V22.1583H20.9292C20.7667 23.0708 20.6833 24.0125 20.6833 24.9667L20.7375 26.3125ZM66.75 26.3125H59.4125L59.4708 24.9667C59.4708 24.0125 59.3875 23.0708 59.2208 22.1583H66.75V26.3125ZM25.1542 13.7667C24.2083 14.7958 23.3875 15.925 22.7208 17.1375L16.725 12.8833L19.1333 9.49583L25.1542 13.7667ZM54.9833 13.7458L60.9708 9.49583L63.3792 12.8833L57.4208 17.1125C56.75 15.9042 55.9292 14.775 54.9833 13.7458ZM32.9 8.6625C31.575 9.14167 30.3208 9.75 29.1542 10.4667L25.9375 3.90417L29.675 2.07917L32.9 8.6625ZM47.2125 8.64583L50.4333 2.07917L54.1667 3.90417L50.9625 10.4458C49.7958 9.72917 48.5417 9.12083 47.2125 8.64583ZM42.1333 7.51667C41.4583 7.45 40.7708 7.41667 40.075 7.41667C39.3667 7.41667 38.6625 7.45417 37.9708 7.52083V0H42.1333V7.51667Z" fill="#357BCD"/>
<path fill-rule="evenodd" clip-rule="evenodd" d="M11.875 72.175L2.5 67.0875L11.8083 54.3083L2.5 46.1417L22.1375 35.4667C22.9875 36.4292 23.8458 37.5667 24.6542 38.8292L9.72083 46.9458L14.6417 51.2667L27.3833 44.2417C27.8792 45.55 28.2833 46.9125 28.5583 48.3125L14.9708 55.8167L40.0458 68.7708L65 55.8333L51.8667 48.5625C52.1208 47.1167 52.4667 45.7833 52.9 44.5292L65.1208 51.2583L70.2625 46.6958L55.6792 38.9667C56.4417 37.8208 57.2958 36.7167 58.2375 35.6208L77.5 45.825L68.0792 54.1917L68.125 54.2167L77.5 67.0542L68.125 72.1542V85.0167L40 100L11.875 85.0167V72.175ZM42.0667 71.7833V94.1875L63.9625 82.525V74.4167L49.375 82.3542L42.0667 71.7833ZM16.0375 74.4333V82.525L37.9042 94.175V71.7875L30.625 82.3542L16.0375 74.4333ZM8.65417 65.7L29.3208 76.9167L33.9 70.275L13.1375 59.5458L8.65417 65.7ZM46.1042 70.3125L50.6708 76.9167L71.3417 65.675L66.8708 59.5458L46.1042 70.3125ZM41.1375 58.1667H38.9667C38.4 58.1667 37.85 57.975 37.475 57.6375L34.5917 55.7417H45.5125L42.6292 57.6375C42.2583 57.975 41.7083 58.1667 41.1375 58.1667ZM45.6167 53.3167H34.5542C33.8833 53.3167 33.3417 52.7792 33.3417 52.1083C33.3417 51.4375 33.8833 50.8958 34.5542 50.8958H45.6167C46.2875 50.8958 46.8292 51.4375 46.8292 52.1083C46.8292 52.7792 46.2875 53.3167 45.6167 53.3167ZM46.8125 48.4708H33.2917C33.2917 38.9 25.4917 34.7583 25.4917 26.1083C25.4917 17.0833 32.7667 12.1167 40.0458 12.1167C47.3292 12.1167 54.6167 17.0917 54.6167 26.1083C54.6167 34.7583 46.8167 38.7667 46.8125 48.4708ZM43.0583 44.3167C43.8417 40.3417 45.6583 37.2792 47.3 34.5C49.0667 31.525 50.4542 29.1708 50.4542 26.1083C50.4542 19.65 45.2167 16.2708 40.0458 16.2708C34.8833 16.2708 29.65 19.65 29.65 26.1083C29.65 29.1875 31.0542 31.575 32.8292 34.5875C34.4625 37.3542 36.2542 40.4042 37.0458 44.3167H43.0583ZM20.7375 26.3125H13.3542V22.1583H20.9292C20.7667 23.0708 20.6833 24.0125 20.6833 24.9667L20.7375 26.3125ZM66.75 26.3125H59.4125L59.4708 24.9667C59.4708 24.0125 59.3875 23.0708 59.2208 22.1583H66.75V26.3125ZM25.1542 13.7667C24.2083 14.7958 23.3875 15.925 22.7208 17.1375L16.725 12.8833L19.1333 9.49583L25.1542 13.7667ZM54.9833 13.7458L60.9708 9.49583L63.3792 12.8833L57.4208 17.1125C56.75 15.9042 55.9292 14.775 54.9833 13.7458ZM32.9 8.6625C31.575 9.14167 30.3208 9.75 29.1542 10.4667L25.9375 3.90417L29.675 2.07917L32.9 8.6625ZM47.2125 8.64583L50.4333 2.07917L54.1667 3.90417L50.9625 10.4458C49.7958 9.72917 48.5417 9.12083 47.2125 8.64583ZM42.1333 7.51667C41.4583 7.45 40.7708 7.41667 40.075 7.41667C39.3667 7.41667 38.6625 7.45417 37.9708 7.52083V0H42.1333V7.51667Z" stroke="#357BCD" stroke-width="2" mask="url(#path-1-outside-1_145_56)"/>
</svg>
