<svg width="100" height="99" viewBox="0 0 100 99" fill="none" xmlns="http://www.w3.org/2000/svg">
<mask id="path-1-outside-1_144_54" maskUnits="userSpaceOnUse" x="-2" y="-0.99585" width="105" height="101" fill="black">
<rect fill="white" x="-2" y="-0.99585" width="105" height="101"/>
<path fill-rule="evenodd" clip-rule="evenodd" d="M7.85833 60.5752L18.4167 77.8988L15.6292 78.5321C12.8375 79.1613 10.8292 80.6934 9.97917 82.8303C9.30833 84.5299 9.4625 86.4053 10.3917 87.7291C11.3917 89.1673 13.0583 89.9885 14.9625 89.9885C18.3292 89.9885 21.6292 87.394 22.6083 84.1704C23.0333 82.7853 23.225 80.6362 21.75 78.2828L10.0708 59.2596L7.85833 60.5752ZM14.9625 94.0742C11.6625 94.0742 8.74167 92.6074 6.95833 90.0539C5.2625 87.6188 4.93333 84.293 6.1 81.3553C7.14167 78.7282 9.24583 76.6567 12.0458 75.4187L2.15417 59.1902L11.4833 53.6377L25.3042 76.1582C27.0792 78.9774 27.5417 82.2501 26.6 85.343C25.45 89.1264 21.2333 94.0742 14.9625 94.0742ZM75.1 98.0578C76.2458 98.017 77.1458 97.0772 77.1083 95.9414C76.8708 89.2857 78.6042 88.0192 82.8417 87.5575C89.1 86.8629 89.9667 83.1285 90.5917 80.3992C91.2625 77.5106 91.7042 75.5944 98.0083 75.2676C99.1542 75.2104 100.037 74.2543 99.9708 73.1185C99.9208 71.9949 98.9583 71.1164 97.7875 71.19C89.0583 71.6353 87.4833 75.3779 86.5333 79.4963C85.9542 81.9845 85.6958 83.1285 82.3792 83.4922C73.7333 84.4441 72.7333 90.1111 72.9417 96.0844C72.9833 97.1876 73.9083 98.0578 75.025 98.0578H75.1ZM86.2042 52.9839L89.5833 54.5692L89.0917 50.9206L91.675 48.2527L87.9833 47.5826L86.2042 44.3467L84.4167 47.5826L80.7292 48.2527L83.3125 50.9206L82.8167 54.5692L86.2042 52.9839ZM94.7292 61.5109L86.2042 57.515L77.675 61.5109L78.9208 52.318L72.4042 45.601L81.7 43.9177L86.2042 35.7625L90.7042 43.9177L99.9958 45.601L93.4875 52.318L94.7292 61.5109ZM54.6375 4.08989C53.425 4.08989 52.25 4.34321 51.1417 4.84575C46.9417 6.74153 45.0958 11.6403 47.025 15.7628C48.8958 19.7546 54.0458 21.6504 58.1542 19.8036C60.1917 18.8803 61.7375 17.2419 62.5125 15.1786C63.2917 13.1153 63.2 10.8804 62.2667 8.88246C60.9 5.97342 57.9083 4.08989 54.6375 4.08989ZM54.6542 24.6452C49.7667 24.6452 45.2833 21.8302 43.2417 17.4748C40.3542 11.3012 43.1125 3.9714 49.4 1.13181C51.0583 0.384124 52.8208 0.00415039 54.6375 0.00415039C59.5292 0.00415039 64.0125 2.81923 66.05 7.17462C67.45 10.1613 67.5792 13.5075 66.4208 16.5923C65.2583 19.6852 62.9417 22.1407 59.8958 23.5135C58.2375 24.2653 56.475 24.6452 54.6542 24.6452ZM23.8875 14.2838C27.6833 20.2898 38.775 36.2038 38.775 36.2038L35.5042 50.0912C34.5167 53.7112 34.9625 56.0278 35.7 58.9123L44.35 94.0129L45.9583 62.7775L64.1 70.8836C64.1 70.8836 61.5917 83.4758 60.75 87.7781C60.75 87.7781 66.7042 73.9479 68.1333 70.5036C68.7083 69.1063 68.4417 68.2687 66.8792 66.5772C63.9458 63.3781 56.2583 55.5212 56.2583 55.5212L59.5542 41.4295C59.5542 41.4295 77.0417 29.4256 82.3417 25.4461C82.6083 25.2499 82.6042 25.0988 82.5625 24.9803L82.1875 24.7106C78.4875 26.0753 72.0083 28.829 67.0625 30.9291L62.2083 32.9883C60.6833 33.6257 58.9792 33.7605 57.375 33.356L43.5208 29.9404C41.9875 29.5645 40.5542 28.825 39.3708 27.7913L23.8875 14.2838ZM44.3917 98.0088C42.7208 98.0006 40.6792 96.9955 39.9792 94.1805C37.9042 85.8701 31.65 59.8807 31.65 59.8807C30.8292 56.6488 30.2417 53.5886 31.4625 49.1025L34.3042 37.0291C32.1333 33.9117 23.7125 21.8016 20.3917 16.8537C19.4625 15.4646 19.3542 13.8221 20.1042 12.4534C21.3417 10.2022 24.6917 9.51575 26.65 11.2277L42.1375 24.7351C42.8208 25.3276 43.65 25.7607 44.5333 25.9772L58.3917 29.3929C59.1125 29.5767 59.8833 29.5154 60.5708 29.2254L65.4125 27.1784C70.3958 25.062 76.9333 22.2837 80.3 20.9844C82.8667 19.9875 85.6792 21.2623 86.5125 23.6688C87.1417 25.5033 86.5 27.4767 84.8708 28.6983C80.0417 32.3183 66.4542 41.6787 63.2583 43.8809L60.825 54.2832C62.725 56.2321 67.6167 61.2698 69.9667 63.8316C71.8208 65.8336 73.5083 68.379 71.9917 72.0521C70.5625 75.5045 68 81.4411 66.0917 85.8782L64.5667 89.4165C63.3833 92.1744 59.3042 92.8362 57.4917 90.6831C56.6792 89.7188 56.3833 88.4073 56.6583 87.0141C57.3042 83.7087 58.7417 76.481 59.3792 73.2696L49.8625 69.0164C49.5833 75.3779 48.9458 89.87 48.7208 93.8372C48.5833 96.2519 46.7625 98.0088 44.3917 98.0088ZM12.225 24.5145L0 36.5143L12.225 48.5141L24.4542 36.5143L12.225 24.5145ZM12.225 30.2958L18.5625 36.5143L12.225 42.7328L5.89167 36.5143L12.225 30.2958Z"/>
</mask>
<path fill-rule="evenodd" clip-rule="evenodd" d="M7.85833 60.5752L18.4167 77.8988L15.6292 78.5321C12.8375 79.1613 10.8292 80.6934 9.97917 82.8303C9.30833 84.5299 9.4625 86.4053 10.3917 87.7291C11.3917 89.1673 13.0583 89.9885 14.9625 89.9885C18.3292 89.9885 21.6292 87.394 22.6083 84.1704C23.0333 82.7853 23.225 80.6362 21.75 78.2828L10.0708 59.2596L7.85833 60.5752ZM14.9625 94.0742C11.6625 94.0742 8.74167 92.6074 6.95833 90.0539C5.2625 87.6188 4.93333 84.293 6.1 81.3553C7.14167 78.7282 9.24583 76.6567 12.0458 75.4187L2.15417 59.1902L11.4833 53.6377L25.3042 76.1582C27.0792 78.9774 27.5417 82.2501 26.6 85.343C25.45 89.1264 21.2333 94.0742 14.9625 94.0742ZM75.1 98.0578C76.2458 98.017 77.1458 97.0772 77.1083 95.9414C76.8708 89.2857 78.6042 88.0192 82.8417 87.5575C89.1 86.8629 89.9667 83.1285 90.5917 80.3992C91.2625 77.5106 91.7042 75.5944 98.0083 75.2676C99.1542 75.2104 100.037 74.2543 99.9708 73.1185C99.9208 71.9949 98.9583 71.1164 97.7875 71.19C89.0583 71.6353 87.4833 75.3779 86.5333 79.4963C85.9542 81.9845 85.6958 83.1285 82.3792 83.4922C73.7333 84.4441 72.7333 90.1111 72.9417 96.0844C72.9833 97.1876 73.9083 98.0578 75.025 98.0578H75.1ZM86.2042 52.9839L89.5833 54.5692L89.0917 50.9206L91.675 48.2527L87.9833 47.5826L86.2042 44.3467L84.4167 47.5826L80.7292 48.2527L83.3125 50.9206L82.8167 54.5692L86.2042 52.9839ZM94.7292 61.5109L86.2042 57.515L77.675 61.5109L78.9208 52.318L72.4042 45.601L81.7 43.9177L86.2042 35.7625L90.7042 43.9177L99.9958 45.601L93.4875 52.318L94.7292 61.5109ZM54.6375 4.08989C53.425 4.08989 52.25 4.34321 51.1417 4.84575C46.9417 6.74153 45.0958 11.6403 47.025 15.7628C48.8958 19.7546 54.0458 21.6504 58.1542 19.8036C60.1917 18.8803 61.7375 17.2419 62.5125 15.1786C63.2917 13.1153 63.2 10.8804 62.2667 8.88246C60.9 5.97342 57.9083 4.08989 54.6375 4.08989ZM54.6542 24.6452C49.7667 24.6452 45.2833 21.8302 43.2417 17.4748C40.3542 11.3012 43.1125 3.9714 49.4 1.13181C51.0583 0.384124 52.8208 0.00415039 54.6375 0.00415039C59.5292 0.00415039 64.0125 2.81923 66.05 7.17462C67.45 10.1613 67.5792 13.5075 66.4208 16.5923C65.2583 19.6852 62.9417 22.1407 59.8958 23.5135C58.2375 24.2653 56.475 24.6452 54.6542 24.6452ZM23.8875 14.2838C27.6833 20.2898 38.775 36.2038 38.775 36.2038L35.5042 50.0912C34.5167 53.7112 34.9625 56.0278 35.7 58.9123L44.35 94.0129L45.9583 62.7775L64.1 70.8836C64.1 70.8836 61.5917 83.4758 60.75 87.7781C60.75 87.7781 66.7042 73.9479 68.1333 70.5036C68.7083 69.1063 68.4417 68.2687 66.8792 66.5772C63.9458 63.3781 56.2583 55.5212 56.2583 55.5212L59.5542 41.4295C59.5542 41.4295 77.0417 29.4256 82.3417 25.4461C82.6083 25.2499 82.6042 25.0988 82.5625 24.9803L82.1875 24.7106C78.4875 26.0753 72.0083 28.829 67.0625 30.9291L62.2083 32.9883C60.6833 33.6257 58.9792 33.7605 57.375 33.356L43.5208 29.9404C41.9875 29.5645 40.5542 28.825 39.3708 27.7913L23.8875 14.2838ZM44.3917 98.0088C42.7208 98.0006 40.6792 96.9955 39.9792 94.1805C37.9042 85.8701 31.65 59.8807 31.65 59.8807C30.8292 56.6488 30.2417 53.5886 31.4625 49.1025L34.3042 37.0291C32.1333 33.9117 23.7125 21.8016 20.3917 16.8537C19.4625 15.4646 19.3542 13.8221 20.1042 12.4534C21.3417 10.2022 24.6917 9.51575 26.65 11.2277L42.1375 24.7351C42.8208 25.3276 43.65 25.7607 44.5333 25.9772L58.3917 29.3929C59.1125 29.5767 59.8833 29.5154 60.5708 29.2254L65.4125 27.1784C70.3958 25.062 76.9333 22.2837 80.3 20.9844C82.8667 19.9875 85.6792 21.2623 86.5125 23.6688C87.1417 25.5033 86.5 27.4767 84.8708 28.6983C80.0417 32.3183 66.4542 41.6787 63.2583 43.8809L60.825 54.2832C62.725 56.2321 67.6167 61.2698 69.9667 63.8316C71.8208 65.8336 73.5083 68.379 71.9917 72.0521C70.5625 75.5045 68 81.4411 66.0917 85.8782L64.5667 89.4165C63.3833 92.1744 59.3042 92.8362 57.4917 90.6831C56.6792 89.7188 56.3833 88.4073 56.6583 87.0141C57.3042 83.7087 58.7417 76.481 59.3792 73.2696L49.8625 69.0164C49.5833 75.3779 48.9458 89.87 48.7208 93.8372C48.5833 96.2519 46.7625 98.0088 44.3917 98.0088ZM12.225 24.5145L0 36.5143L12.225 48.5141L24.4542 36.5143L12.225 24.5145ZM12.225 30.2958L18.5625 36.5143L12.225 42.7328L5.89167 36.5143L12.225 30.2958Z" fill="#357BCD"/>
<path d="M18.4167 77.8988L18.6382 78.8739L19.9943 78.5658L19.2706 77.3783L18.4167 77.8988ZM15.6292 78.5321L15.849 79.5076L15.8507 79.5072L15.6292 78.5321ZM9.97917 82.8303L9.04998 82.4607L9.04899 82.4631L9.97917 82.8303ZM10.3917 87.7291L11.2127 87.1582L11.2102 87.1546L10.3917 87.7291ZM22.6083 84.1704L21.6523 83.877L21.6515 83.8798L22.6083 84.1704ZM21.75 78.2828L20.8978 78.8061L20.9027 78.8139L21.75 78.2828ZM10.0708 59.2596L10.923 58.7364L10.4072 57.8962L9.55974 58.4001L10.0708 59.2596ZM6.95833 90.0539L6.13772 90.6253L6.13847 90.6264L6.95833 90.0539ZM6.1 81.3553L7.02939 81.7244L7.02959 81.7239L6.1 81.3553ZM12.0458 75.4187L12.4502 76.3333L13.4933 75.8721L12.8997 74.8983L12.0458 75.4187ZM2.15417 59.1902L1.64272 58.3309L0.774313 58.8477L1.30028 59.7106L2.15417 59.1902ZM11.4833 53.6377L12.3356 53.1146L11.8196 52.2738L10.9719 52.7783L11.4833 53.6377ZM25.3042 76.1582L24.4518 76.6813L24.4579 76.6911L25.3042 76.1582ZM26.6 85.343L25.6434 85.0517L25.6432 85.0522L26.6 85.343ZM77.1083 95.9414L78.1078 95.9084L78.1077 95.9057L77.1083 95.9414ZM82.8417 87.5575L82.95 88.5516L82.952 88.5514L82.8417 87.5575ZM90.5917 80.3992L89.6176 80.173L89.6169 80.176L90.5917 80.3992ZM98.0083 75.2676L97.9585 74.2688L97.9566 74.2689L98.0083 75.2676ZM99.9708 73.1185L98.9718 73.1629L98.9721 73.17L98.9725 73.1771L99.9708 73.1185ZM97.7875 71.19L97.8384 72.1888L97.8502 72.188L97.7875 71.19ZM86.5333 79.4963L87.5073 79.723L87.5077 79.7211L86.5333 79.4963ZM82.3792 83.4922L82.2702 82.4981L82.2697 82.4982L82.3792 83.4922ZM72.9417 96.0844L71.9423 96.1193L71.9424 96.1221L72.9417 96.0844ZM89.5833 54.5692L89.1586 55.4745L90.8194 56.2536L90.5744 54.4357L89.5833 54.5692ZM89.0917 50.9206L88.3733 50.225L88.0358 50.5735L88.1006 51.0542L89.0917 50.9206ZM91.675 48.2527L92.3934 48.9483L93.6959 47.6031L91.8536 47.2687L91.675 48.2527ZM87.9833 47.5826L87.107 48.0644L87.3364 48.4815L87.8047 48.5665L87.9833 47.5826ZM86.2042 44.3467L87.0804 43.8649L86.2062 42.2748L85.3288 43.8632L86.2042 44.3467ZM84.4167 47.5826L84.5955 48.5665L85.0625 48.4816L85.292 48.0661L84.4167 47.5826ZM80.7292 48.2527L80.5504 47.2688L78.7086 47.6034L80.0107 48.9483L80.7292 48.2527ZM83.3125 50.9206L84.3034 51.0553L84.3688 50.574L84.0309 50.225L83.3125 50.9206ZM82.8167 54.5692L81.8258 54.4345L81.5787 56.2526L83.2405 55.4749L82.8167 54.5692ZM86.2042 57.515L86.6286 56.6096L86.2043 56.4107L85.7799 56.6095L86.2042 57.515ZM77.675 61.5109L76.6841 61.3766L76.4376 63.1949L78.0992 62.4164L77.675 61.5109ZM78.9208 52.318L79.9118 52.4523L79.9771 51.9705L79.6386 51.6216L78.9208 52.318ZM72.4042 45.601L72.226 44.617L70.3805 44.9512L71.6864 46.2973L72.4042 45.601ZM81.7 43.9177L81.8782 44.9017L82.3457 44.817L82.5754 44.4011L81.7 43.9177ZM86.2042 35.7625L87.0797 35.2794L86.2046 33.6934L85.3288 35.2791L86.2042 35.7625ZM90.7042 43.9177L89.8286 44.4008L90.0582 44.8169L90.5259 44.9017L90.7042 43.9177ZM99.9958 45.601L100.714 46.2969L102.018 44.9511L100.174 44.617L99.9958 45.601ZM93.4875 52.318L92.7693 51.6221L92.4315 51.9707L92.4965 52.4518L93.4875 52.318ZM51.1417 4.84575L51.5531 5.7572L51.5546 5.7565L51.1417 4.84575ZM47.025 15.7628L46.1193 16.1867L46.1195 16.1872L47.025 15.7628ZM58.1542 19.8036L58.5642 20.7157L58.5669 20.7145L58.1542 19.8036ZM62.5125 15.1786L61.577 14.8253L61.5764 14.827L62.5125 15.1786ZM62.2667 8.88246L63.1727 8.45922L63.1718 8.45725L62.2667 8.88246ZM43.2417 17.4748L42.3358 17.8984L42.3362 17.8992L43.2417 17.4748ZM49.4 1.13181L48.989 0.220189L48.9884 0.220448L49.4 1.13181ZM66.05 7.17462L65.1442 7.59836L65.1445 7.59906L66.05 7.17462ZM66.4208 16.5923L67.3569 16.9441L67.357 16.9438L66.4208 16.5923ZM59.8958 23.5135L59.4849 22.6018L59.4829 22.6027L59.8958 23.5135ZM38.775 36.2038L39.7484 36.4331L39.8507 35.9984L39.5954 35.632L38.775 36.2038ZM35.5042 50.0912L36.4689 50.3544L36.4735 50.3375L36.4775 50.3205L35.5042 50.0912ZM35.7 58.9123L36.671 58.6731L36.6688 58.6646L35.7 58.9123ZM44.35 94.0129L43.379 94.2522L45.3487 94.0644L44.35 94.0129ZM45.9583 62.7775L46.3663 61.8644L45.0347 61.2694L44.9597 62.726L45.9583 62.7775ZM64.1 70.8836L65.0807 71.0789L65.2366 70.2962L64.5079 69.9706L64.1 70.8836ZM60.75 87.7781L59.7686 87.5861L61.6685 88.1735L60.75 87.7781ZM68.1333 70.5036L69.057 70.8868L69.0581 70.8841L68.1333 70.5036ZM66.8792 66.5772L66.1421 67.253L66.1446 67.2557L66.8792 66.5772ZM56.2583 55.5212L55.2846 55.2934L55.1596 55.8281L55.5436 56.2205L56.2583 55.5212ZM59.5542 41.4295L58.9882 40.605L58.6687 40.8243L58.5804 41.2017L59.5542 41.4295ZM82.3417 25.4461L81.7492 24.6404L81.7412 24.6464L82.3417 25.4461ZM82.5625 24.9803L83.5059 24.6485L83.4016 24.3519L83.1463 24.1684L82.5625 24.9803ZM82.1875 24.7106L82.7713 23.8987L82.34 23.5885L81.8415 23.7724L82.1875 24.7106ZM67.0625 30.9291L67.453 31.8497L67.4533 31.8496L67.0625 30.9291ZM62.2083 32.9883L62.594 33.911L62.5989 33.9089L62.2083 32.9883ZM57.375 33.356L57.6195 32.3864L57.6144 32.3851L57.375 33.356ZM43.5208 29.9404L43.7602 28.9694L43.7589 28.9691L43.5208 29.9404ZM39.3708 27.7913L40.0287 27.0381L40.0282 27.0377L39.3708 27.7913ZM39.9792 94.1805L40.9496 93.9391L40.9494 93.9382L39.9792 94.1805ZM31.65 59.8807L32.6223 59.6467L32.6192 59.6345L31.65 59.8807ZM31.4625 49.1025L32.4274 49.3651L32.4319 49.3484L32.4359 49.3316L31.4625 49.1025ZM34.3042 37.0291L35.2776 37.2582L35.3798 36.8239L35.1248 36.4577L34.3042 37.0291ZM20.3917 16.8537L19.5605 17.4097L19.5613 17.411L20.3917 16.8537ZM20.1042 12.4534L19.2278 11.9717L19.2272 11.9729L20.1042 12.4534ZM26.65 11.2277L25.9918 11.9806L25.9927 11.9813L26.65 11.2277ZM42.1375 24.7351L41.4802 25.4888L41.4824 25.4907L42.1375 24.7351ZM44.5333 25.9772L44.7726 25.0063L44.7714 25.006L44.5333 25.9772ZM58.3917 29.3929L58.6388 28.4239L58.631 28.4219L58.3917 29.3929ZM60.5708 29.2254L60.9596 30.1467L60.9602 30.1464L60.5708 29.2254ZM65.4125 27.1784L65.8019 28.0995L65.8034 28.0988L65.4125 27.1784ZM80.3 20.9844L80.66 21.9174L80.6621 21.9166L80.3 20.9844ZM86.5125 23.6688L87.4584 23.3443L87.4574 23.3415L86.5125 23.6688ZM84.8708 28.6983L85.4706 29.4985L85.4708 29.4984L84.8708 28.6983ZM63.2583 43.8809L62.6909 43.0575L62.3727 43.2768L62.2846 43.6531L63.2583 43.8809ZM60.825 54.2832L59.8513 54.0554L59.7265 54.5889L60.109 54.9813L60.825 54.2832ZM69.9667 63.8316L69.2297 64.5076L69.233 64.5111L69.9667 63.8316ZM71.9917 72.0521L72.9156 72.4346L72.916 72.4337L71.9917 72.0521ZM66.0917 85.8782L67.01 86.274L67.0103 86.2733L66.0917 85.8782ZM64.5667 89.4165L63.6483 89.0207L63.6477 89.0222L64.5667 89.4165ZM57.4917 90.6831L58.2567 90.0391L58.2564 90.0387L57.4917 90.6831ZM56.6583 87.0141L57.6394 87.2077L57.6398 87.2058L56.6583 87.0141ZM59.3792 73.2696L60.36 73.4643L60.5153 72.6821L59.7872 72.3567L59.3792 73.2696ZM49.8625 69.0164L50.2705 68.1034L48.9279 67.5034L48.8635 68.9725L49.8625 69.0164ZM48.7208 93.8372L49.7192 93.8941L49.7192 93.8939L48.7208 93.8372ZM0 36.5143L-0.700504 35.8007L-1.42754 36.5143L-0.700504 37.228L0 36.5143ZM12.225 48.5141L11.5245 49.2278L12.2249 49.9153L12.9254 49.2279L12.225 48.5141ZM24.4542 36.5143L25.1545 37.2281L25.882 36.5143L25.1545 35.8006L24.4542 36.5143ZM18.5625 36.5143L19.2629 37.2281L19.9903 36.5143L19.2629 35.8005L18.5625 36.5143ZM12.225 42.7328L11.5244 43.4464L12.2248 44.134L12.9254 43.4466L12.225 42.7328ZM5.89167 36.5143L5.19106 35.8008L4.46433 36.5143L5.19106 37.2279L5.89167 36.5143ZM7.00443 61.0957L17.5628 78.4192L19.2706 77.3783L8.71223 60.0548L7.00443 61.0957ZM18.1951 76.9236L15.4076 77.5569L15.8507 79.5072L18.6382 78.8739L18.1951 76.9236ZM15.4093 77.5565C12.3828 78.2387 10.0516 79.9426 9.04998 82.4607L10.9084 83.1999C11.6067 81.4442 13.2922 80.0839 15.849 79.5076L15.4093 77.5565ZM9.04899 82.4631C8.27459 84.4252 8.42175 86.6632 9.57317 88.3036L11.2102 87.1546C10.5032 86.1474 10.3421 84.6346 10.9093 83.1974L9.04899 82.4631ZM9.57063 88.2999C10.7768 90.0346 12.766 90.9885 14.9625 90.9885V88.9885C13.3506 88.9885 12.0066 88.2999 11.2127 87.1582L9.57063 88.2999ZM14.9625 90.9885C18.7979 90.9885 22.4665 88.0782 23.5652 84.461L21.6515 83.8798C20.7919 86.7099 17.8604 88.9885 14.9625 88.9885V90.9885ZM23.5643 84.4637C24.0526 82.8724 24.2621 80.408 22.5973 77.7518L20.9027 78.8139C22.1879 80.8645 22.014 82.6983 21.6523 83.877L23.5643 84.4637ZM22.6022 77.7596L10.923 58.7364L9.21863 59.7828L20.8978 78.806L22.6022 77.7596ZM9.55974 58.4001L7.34724 59.7157L8.36943 61.4348L10.5819 60.1192L9.55974 58.4001ZM14.9625 93.0742C11.9661 93.0742 9.36163 91.7486 7.77819 89.4813L6.13847 90.6264C8.1217 93.4662 11.3589 95.0742 14.9625 95.0742V93.0742ZM7.77895 89.4824C6.28913 87.3431 5.97712 84.374 7.02939 81.7244L5.17061 80.9862C3.88954 84.2119 4.23587 87.8944 6.13772 90.6253L7.77895 89.4824ZM7.02959 81.7239C7.9632 79.3693 9.86033 77.4784 12.4502 76.3333L11.6415 74.5041C8.63134 75.835 6.32013 78.0871 5.17041 80.9867L7.02959 81.7239ZM12.8997 74.8983L3.00805 58.6697L1.30028 59.7106L11.1919 75.9392L12.8997 74.8983ZM2.66561 60.0495L11.9948 54.497L10.9719 52.7783L1.64272 58.3309L2.66561 60.0495ZM10.631 54.1607L24.4519 76.6813L26.1565 75.6352L12.3356 53.1146L10.631 54.1607ZM24.4579 76.6911C26.0838 79.2734 26.4975 82.2463 25.6434 85.0517L27.5566 85.6343C28.5858 82.2539 28.0745 78.6814 26.1504 75.6254L24.4579 76.6911ZM25.6432 85.0522C24.5838 88.5376 20.6765 93.0742 14.9625 93.0742V95.0742C21.7902 95.0742 26.3162 89.7151 27.5568 85.6338L25.6432 85.0522ZM75.1356 99.0572C76.8143 98.9973 78.1641 97.6131 78.1078 95.9084L76.1089 95.9744C76.1276 96.5414 75.6773 97.0366 75.0644 97.0585L75.1356 99.0572ZM78.1077 95.9057C77.9896 92.5957 78.3895 90.9412 79.0878 90.0386C79.748 89.1853 80.8552 88.7798 82.95 88.5516L82.7334 86.5634C80.5907 86.7968 78.7124 87.2554 77.506 88.8148C76.3376 90.3248 75.9896 92.6315 76.109 95.9771L78.1077 95.9057ZM82.952 88.5514C86.289 88.181 88.3378 86.9744 89.6134 85.3618C90.8501 83.7985 91.2593 81.9637 91.5664 80.6225L89.6169 80.176C89.299 81.5641 88.9624 82.9611 88.0449 84.121C87.1664 85.2315 85.6526 86.2394 82.7314 86.5636L82.952 88.5514ZM91.5657 80.6255C91.9163 79.1161 92.1478 78.2516 92.8552 77.6172C93.5693 76.9767 94.9561 76.4272 98.0601 76.2662L97.9566 74.2689C94.7564 74.4348 92.7703 75.0068 91.5198 76.1283C90.2626 77.2558 89.9379 78.7938 89.6176 80.173L91.5657 80.6255ZM98.0582 76.2663C99.7387 76.1824 101.07 74.7706 100.969 73.0599L98.9725 73.1771C99.0055 73.738 98.5696 74.2383 97.9585 74.2688L98.0582 76.2663ZM100.97 73.074C100.895 71.3853 99.4477 70.0837 97.7248 70.192L97.8502 72.188C98.4689 72.1492 98.947 72.6044 98.9718 73.1629L100.97 73.074ZM97.7365 70.1913C93.2465 70.4204 90.4016 71.506 88.5586 73.2368C86.7242 74.9596 86.041 77.1815 85.5589 79.2715L87.5077 79.7211C87.9756 77.6926 88.5549 75.9841 89.9278 74.6947C91.2922 73.4133 93.5993 72.405 97.8384 72.1887L97.7365 70.1913ZM85.5594 79.2696C85.2499 80.5991 85.0813 81.2235 84.7241 81.6396C84.4255 81.9873 83.8533 82.3245 82.2702 82.4981L82.4881 84.4862C84.2217 84.2961 85.437 83.8795 86.2416 82.9423C86.9875 82.0734 87.2376 80.8818 87.5073 79.723L85.5594 79.2696ZM82.2697 82.4982C77.7142 82.9998 74.9737 84.7819 73.4719 87.409C72.0187 89.9512 71.8372 93.108 71.9423 96.1193L73.9411 96.0496C73.8377 93.0874 74.0521 90.4241 75.2083 88.4015C76.3159 86.4639 78.3982 84.9365 82.4886 84.4861L82.2697 82.4982ZM71.9424 96.1221C72.005 97.7795 73.3879 99.0578 75.025 99.0578V97.0578C74.4287 97.0578 73.9617 96.5956 73.941 96.0467L71.9424 96.1221ZM75.025 99.0578H75.1V97.0578H75.025V99.0578ZM85.7794 53.8893L89.1586 55.4745L90.008 53.6639L86.6289 52.0786L85.7794 53.8893ZM90.5744 54.4357L90.0827 50.7871L88.1006 51.0542L88.5923 54.7028L90.5744 54.4357ZM89.8101 51.6163L92.3934 48.9483L90.9566 47.557L88.3733 50.225L89.8101 51.6163ZM91.8536 47.2687L88.1619 46.5987L87.8047 48.5665L91.4964 49.2366L91.8536 47.2687ZM88.8596 47.1008L87.0804 43.8649L85.3279 44.8285L87.107 48.0644L88.8596 47.1008ZM85.3288 43.8632L83.5413 47.0991L85.292 48.0661L87.0795 44.8302L85.3288 43.8632ZM84.2379 46.5987L80.5504 47.2688L80.908 49.2365L84.5955 48.5665L84.2379 46.5987ZM80.0107 48.9483L82.5941 51.6163L84.0309 50.225L81.4476 47.557L80.0107 48.9483ZM82.3216 50.786L81.8258 54.4345L83.8076 54.7039L84.3034 51.0553L82.3216 50.786ZM83.2405 55.4749L86.628 53.8897L85.7803 52.0782L82.3928 53.6635L83.2405 55.4749ZM95.1536 60.6054L86.6286 56.6096L85.7797 58.4205L94.3048 62.4163L95.1536 60.6054ZM85.7799 56.6095L77.2508 60.6053L78.0992 62.4164L86.6284 58.4206L85.7799 56.6095ZM78.6659 61.6452L79.9118 52.4523L77.9299 52.1837L76.6841 61.3766L78.6659 61.6452ZM79.6386 51.6216L73.1219 44.9047L71.6864 46.2973L78.2031 53.0143L79.6386 51.6216ZM72.5824 46.585L81.8782 44.9017L81.5218 42.9337L72.226 44.617L72.5824 46.585ZM82.5754 44.4011L87.0795 36.246L85.3288 35.2791L80.8246 43.4342L82.5754 44.4011ZM85.3286 36.2457L89.8286 44.4008L91.5797 43.4345L87.0797 35.2794L85.3286 36.2457ZM90.5259 44.9017L99.8176 46.585L100.174 44.617L90.8824 42.9337L90.5259 44.9017ZM99.2777 44.9051L92.7693 51.6221L94.2057 53.0138L100.714 46.2969L99.2777 44.9051ZM92.4965 52.4518L93.7382 61.6447L95.7202 61.377L94.4785 52.1841L92.4965 52.4518ZM54.6375 3.08989C53.2826 3.08989 51.9668 3.3736 50.7287 3.935L51.5546 5.7565C52.5332 5.31281 53.5674 5.08989 54.6375 5.08989V3.08989ZM50.7303 3.9343C46.0323 6.05483 43.949 11.5489 46.1193 16.1867L47.9307 15.339C46.2427 11.7318 47.851 7.42824 51.5531 5.7572L50.7303 3.9343ZM46.1195 16.1872C48.2263 20.6825 53.9669 22.7823 58.5642 20.7157L57.7442 18.8916C54.1248 20.5185 49.5653 18.8267 47.9305 15.3385L46.1195 16.1872ZM58.5669 20.7145C60.8415 19.6837 62.5785 17.8468 63.4486 15.5302L61.5764 14.827C60.8965 16.637 59.5419 18.0769 57.7414 18.8928L58.5669 20.7145ZM63.448 15.5319C64.3232 13.2142 64.2192 10.6994 63.1727 8.45922L61.3606 9.30571C62.1808 11.0614 62.2601 13.0164 61.577 14.8253L63.448 15.5319ZM63.1718 8.45725C61.6372 5.1908 58.2886 3.08989 54.6375 3.08989V5.08989C57.5281 5.08989 60.1628 6.75603 61.3616 9.30768L63.1718 8.45725ZM54.6542 23.6452C50.1461 23.6452 46.0206 21.0469 44.1471 17.0503L42.3362 17.8992C44.5461 22.6134 49.3872 25.6452 54.6542 25.6452V23.6452ZM44.1475 17.0511C41.5007 11.3923 44.0223 4.65776 49.8116 2.04318L48.9884 0.220448C42.2027 3.28504 39.2076 11.2102 42.3358 17.8984L44.1475 17.0511ZM49.811 2.04344C51.3406 1.3538 52.963 1.00415 54.6375 1.00415V-0.99585C52.6786 -0.99585 50.7761 -0.585556 48.989 0.22019L49.811 2.04344ZM54.6375 1.00415C59.1501 1.00415 63.275 3.60274 65.1442 7.59836L66.9558 6.75089C64.75 2.03571 59.9083 -0.99585 54.6375 -0.99585V1.00415ZM65.1445 7.59906C66.4299 10.3412 66.5485 13.4077 65.4847 16.2407L67.357 16.9438C68.6098 13.6074 68.4701 9.98136 66.9555 6.75019L65.1445 7.59906ZM65.4848 16.2404C64.4172 19.0808 62.2916 21.3368 59.4849 22.6018L60.3067 24.4252C63.5917 22.9446 66.0995 20.2895 67.3569 16.9441L65.4848 16.2404ZM59.4829 22.6027C57.9546 23.2956 56.3329 23.6452 54.6542 23.6452V25.6452C56.6171 25.6452 58.5204 25.235 60.3087 24.4243L59.4829 22.6027ZM23.0422 14.8181C24.9521 17.8402 28.6853 23.3364 31.9303 28.0621C33.5551 30.4283 35.061 32.6065 36.1607 34.1931C36.7106 34.9864 37.159 35.6319 37.4699 36.0791C37.6254 36.3027 37.7465 36.4768 37.8288 36.595C37.8699 36.6541 37.9014 36.6992 37.9225 36.7295C37.9331 36.7447 37.9411 36.7562 37.9465 36.7639C37.9492 36.7678 37.9512 36.7707 37.9525 36.7726C37.9532 36.7736 37.9537 36.7744 37.9541 36.7748C37.9543 36.7751 37.9544 36.7753 37.9545 36.7754C37.9546 36.7755 37.9546 36.7756 38.775 36.2038C39.5954 35.632 39.5954 35.632 39.5953 35.6318C39.5952 35.6317 39.5951 35.6315 39.5949 35.6313C39.5946 35.6308 39.5941 35.6301 39.5934 35.6292C39.5921 35.6272 39.5901 35.6244 39.5874 35.6206C39.5821 35.6129 39.5741 35.6015 39.5636 35.5864C39.5426 35.5562 39.5112 35.5112 39.4702 35.4523C39.3882 35.3344 39.2673 35.1607 39.112 34.9374C38.8016 34.4909 38.3538 33.8462 37.8045 33.0537C36.7059 31.4688 35.2017 29.2931 33.579 26.93C30.3293 22.1973 26.6187 16.7335 24.7328 13.7496L23.0422 14.8181ZM37.8016 35.9745L34.5308 49.862L36.4775 50.3205L39.7484 36.4331L37.8016 35.9745ZM34.5394 49.8281C33.4855 53.6914 33.9759 56.2061 34.7312 59.16L36.6688 58.6646C35.9491 55.8495 35.5478 53.731 36.4689 50.3544L34.5394 49.8281ZM34.729 59.1516L43.379 94.2522L45.3209 93.7737L36.6709 58.6731L34.729 59.1516ZM45.3487 94.0644L46.957 62.8289L44.9597 62.726L43.3513 93.9615L45.3487 94.0644ZM45.5504 63.6905L63.692 71.7966L64.5079 69.9706L46.3663 61.8644L45.5504 63.6905ZM64.1 70.8836C63.1193 70.6882 63.1193 70.6883 63.1192 70.6884C63.1192 70.6885 63.1192 70.6886 63.1191 70.6888C63.1191 70.6892 63.119 70.6897 63.1188 70.6905C63.1185 70.692 63.118 70.6943 63.1174 70.6974C63.1162 70.7034 63.1144 70.7125 63.112 70.7245C63.1073 70.7484 63.1002 70.7841 63.0909 70.8307C63.0723 70.924 63.0449 71.0614 63.0098 71.2378C62.9396 71.5905 62.8383 72.0992 62.7141 72.7232C62.4658 73.971 62.126 75.6796 61.7598 77.5226C61.0276 81.2081 60.1898 85.4332 59.7686 87.5861L61.7314 87.9701C62.1519 85.8207 62.9891 81.5986 63.7215 77.9123C64.0876 76.0695 64.4274 74.3612 64.6757 73.1135C64.7998 72.4897 64.9011 71.981 64.9713 71.6283C65.0064 71.452 65.0338 71.3146 65.0524 71.2214C65.0616 71.1747 65.0687 71.1391 65.0735 71.1152C65.0759 71.1032 65.0777 71.0941 65.0789 71.0881C65.0795 71.085 65.08 71.0827 65.0803 71.0812C65.0804 71.0805 65.0805 71.0799 65.0806 71.0795C65.0807 71.0793 65.0807 71.0792 65.0807 71.0791C65.0807 71.079 65.0807 71.0789 64.1 70.8836ZM60.75 87.7781C61.6685 88.1735 61.6685 88.1735 61.6686 88.1734C61.6686 88.1733 61.6687 88.1731 61.6688 88.1729C61.6689 88.1725 61.6692 88.1718 61.6696 88.171C61.6703 88.1693 61.6714 88.1668 61.6728 88.1635C61.6757 88.1568 61.68 88.1468 61.6856 88.1337C61.697 88.1074 61.7138 88.0684 61.7358 88.0173C61.7797 87.9151 61.8444 87.7648 61.9272 87.5723C62.0929 87.1873 62.3311 86.6336 62.6214 85.9583C63.202 84.6077 63.991 82.771 64.8248 80.8265C66.4909 76.9409 68.3396 72.6158 69.057 70.8868L67.2097 70.1203C66.4979 71.8357 64.6549 76.1478 62.9867 80.0384C62.1532 81.982 61.3644 83.8181 60.784 85.1684C60.4937 85.8435 60.2556 86.3971 60.09 86.7819C60.0073 86.9743 59.9426 87.1245 59.8987 87.2266C59.8767 87.2777 59.8599 87.3167 59.8486 87.3429C59.843 87.3561 59.8387 87.366 59.8358 87.3727C59.8344 87.376 59.8333 87.3785 59.8326 87.3802C59.8322 87.381 59.832 87.3816 59.8318 87.382C59.8317 87.3822 59.8316 87.3824 59.8316 87.3825C59.8315 87.3826 59.8315 87.3827 60.75 87.7781ZM69.0581 70.8841C69.3981 70.0578 69.5471 69.2445 69.2604 68.3466C68.9983 67.5255 68.4051 66.7553 67.6137 65.8987L66.1446 67.2557C66.9157 68.0905 67.2371 68.5849 67.3552 68.9548C67.4487 69.2479 67.4435 69.552 67.2086 70.123L69.0581 70.8841ZM67.6162 65.9014C66.1389 64.2901 63.4741 61.5164 61.1872 59.154C60.042 57.9709 58.9886 56.888 58.2215 56.1009C57.8379 55.7073 57.5259 55.3876 57.3098 55.1663C57.2017 55.0556 57.1176 54.9696 57.0604 54.9111C57.0319 54.8819 57.0101 54.8596 56.9954 54.8446C56.988 54.8371 56.9825 54.8314 56.9788 54.8276C56.9769 54.8257 56.9755 54.8242 56.9745 54.8233C56.9741 54.8228 56.9737 54.8224 56.9735 54.8222C56.9734 54.8221 56.9733 54.822 56.9732 54.8219C56.9731 54.8219 56.9731 54.8218 56.2583 55.5212C55.5436 56.2205 55.5436 56.2206 55.5436 56.2206C55.5437 56.2207 55.5438 56.2208 55.5439 56.2209C55.5441 56.2211 55.5445 56.2215 55.5449 56.2219C55.5458 56.2229 55.5472 56.2243 55.5491 56.2262C55.5528 56.2299 55.5583 56.2356 55.5656 56.243C55.5801 56.2579 55.6019 56.2801 55.6303 56.3093C55.6872 56.3675 55.7711 56.4533 55.879 56.5638C56.0947 56.7846 56.4062 57.1037 56.7892 57.4967C57.5552 58.2827 58.607 59.364 59.7503 60.545C62.0404 62.9109 64.6861 65.6651 66.1421 67.253L67.6162 65.9014ZM57.2321 55.7489L60.5279 41.6572L58.5804 41.2017L55.2846 55.2934L57.2321 55.7489ZM59.5542 41.4295C60.1201 42.2539 60.1202 42.2539 60.1203 42.2538C60.1204 42.2537 60.1206 42.2535 60.1209 42.2534C60.1215 42.253 60.1223 42.2524 60.1233 42.2517C60.1255 42.2502 60.1286 42.248 60.1329 42.2451C60.1413 42.2393 60.1539 42.2307 60.1706 42.2192C60.2039 42.1964 60.2534 42.1624 60.3181 42.1179C60.4476 42.0289 60.6382 41.8979 60.8826 41.7298C61.3714 41.3936 62.0756 40.909 62.9371 40.3149C64.66 39.1269 67.0126 37.5014 69.5311 35.7513C74.5606 32.2562 80.2743 28.2489 82.9421 26.2457L81.7412 24.6464C79.109 26.6228 73.429 30.6071 68.3898 34.1089C65.8739 35.8572 63.5233 37.4813 61.8017 38.6684C60.941 39.2619 60.2375 39.7462 59.7492 40.082C59.5051 40.2499 59.3148 40.3807 59.1856 40.4695C59.1209 40.5139 59.0716 40.5478 59.0384 40.5706C59.0218 40.582 59.0092 40.5906 59.0008 40.5964C58.9966 40.5992 58.9935 40.6014 58.9914 40.6029C58.9903 40.6036 58.9895 40.6041 58.989 40.6045C58.9888 40.6047 58.9886 40.6048 58.9884 40.6049C58.9883 40.605 58.9882 40.605 59.5542 41.4295ZM82.9341 26.2516C83.1566 26.088 83.3927 25.8527 83.5112 25.5154C83.6398 25.1493 83.571 24.8338 83.5059 24.6485L81.6191 25.312C81.5957 25.2453 81.5498 25.0646 81.6242 24.8527C81.6885 24.6696 81.7934 24.608 81.7492 24.6405L82.9341 26.2516ZM83.1463 24.1684L82.7713 23.8987L81.6037 25.5225L81.9787 25.7922L83.1463 24.1684ZM81.8415 23.7724C78.1129 25.1476 71.6057 27.9136 66.6717 30.0087L67.4533 31.8496C72.4109 29.7445 78.8621 27.003 82.5335 25.6488L81.8415 23.7724ZM66.672 30.0085L61.8178 32.0677L62.5989 33.9089L67.453 31.8497L66.672 30.0085ZM61.8227 32.0657C60.4942 32.6209 59.011 32.7372 57.6195 32.3864L57.1305 34.3257C58.9474 34.7838 60.8725 34.6305 62.594 33.911L61.8227 32.0657ZM57.6144 32.3851L43.7602 28.9694L43.2815 30.9113L57.1356 34.327L57.6144 32.3851ZM43.7589 28.9691C42.3786 28.6307 41.0898 27.965 40.0287 27.0381L38.713 28.5444C40.0186 29.6849 41.5964 30.4982 43.2827 30.9116L43.7589 28.9691ZM40.0282 27.0377L24.5449 13.5303L23.2301 15.0374L38.7134 28.5448L40.0282 27.0377ZM44.3966 97.0088C43.1435 97.0027 41.5299 96.2728 40.9496 93.9391L39.0087 94.4218C39.8284 97.7183 42.2982 98.9986 44.3868 99.0088L44.3966 97.0088ZM40.9494 93.9382C39.913 89.7873 37.8316 81.2163 36.0084 73.6791C35.097 69.9113 34.2505 66.4032 33.6318 63.837C33.3224 62.5539 33.07 61.5063 32.895 60.7795C32.8075 60.4161 32.7393 60.1329 32.693 59.9405C32.6698 59.8443 32.6521 59.7709 32.6402 59.7215C32.6343 59.6968 32.6298 59.6781 32.6268 59.6655C32.6253 59.6593 32.6241 59.6546 32.6234 59.6514C32.623 59.6499 32.6227 59.6487 32.6225 59.6479C32.6224 59.6475 32.6224 59.6472 32.6223 59.647C32.6223 59.6468 32.6222 59.6467 31.65 59.8807C30.6778 60.1146 30.6778 60.1147 30.6778 60.1149C30.6779 60.1151 30.6779 60.1154 30.678 60.1158C30.6782 60.1166 30.6785 60.1178 30.6789 60.1194C30.6797 60.1225 30.6808 60.1273 30.6823 60.1335C30.6853 60.146 30.6898 60.1648 30.6958 60.1895C30.7077 60.2389 30.7254 60.3124 30.7485 60.4086C30.7948 60.601 30.863 60.8843 30.9506 61.2478C31.1257 61.9747 31.3781 63.0225 31.6875 64.3057C32.3063 66.8723 33.153 70.3809 34.0645 74.1493C35.8871 81.6843 37.9704 90.2632 39.009 94.4227L40.9494 93.9382ZM32.6192 59.6345C31.8163 56.4732 31.2723 53.6097 32.4274 49.3651L30.4976 48.8399C29.211 53.5676 29.842 56.8245 30.6808 60.1268L32.6192 59.6345ZM32.4359 49.3316L35.2776 37.2582L33.3308 36.8L30.4891 48.8734L32.4359 49.3316ZM35.1248 36.4577C32.9517 33.3371 24.5369 21.2354 21.222 16.2965L19.5613 17.411C22.8881 22.3677 31.3149 34.4864 33.4835 37.6006L35.1248 36.4577ZM21.2229 16.2978C20.4822 15.1905 20.426 13.9471 20.9811 12.9339L19.2272 11.9729C18.2823 13.6972 18.4428 15.7387 19.5605 17.4097L21.2229 16.2978ZM20.9805 12.9351C21.4352 12.1079 22.3059 11.5276 23.2965 11.3362C24.2847 11.1452 25.2834 11.3613 25.9918 11.9806L27.3082 10.4748C26.0582 9.38215 24.4027 9.08544 22.9171 9.37251C21.4336 9.65914 20.0106 10.5476 19.2278 11.9717L20.9805 12.9351ZM25.9927 11.9813L41.4802 25.4888L42.7948 23.9815L27.3073 10.474L25.9927 11.9813ZM41.4824 25.4907C42.2839 26.1855 43.2555 26.6935 44.2952 26.9484L44.7714 25.006C44.0445 24.8278 43.3578 24.4696 42.7926 23.9796L41.4824 25.4907ZM44.294 26.9481L58.1524 30.3638L58.631 28.4219L44.7726 25.0063L44.294 26.9481ZM58.1445 30.3619C59.0804 30.6006 60.0744 30.5202 60.9596 30.1467L60.1821 28.304C59.6922 28.5107 59.1446 28.5529 58.6388 28.4239L58.1445 30.3619ZM60.9602 30.1464L65.8019 28.0995L65.0231 26.2573L60.1814 28.3043L60.9602 30.1464ZM65.8034 28.0988C70.7958 25.9786 77.3131 23.209 80.66 21.9174L79.94 20.0515C76.5535 21.3584 69.9959 24.1454 65.0216 26.258L65.8034 28.0988ZM80.6621 21.9166C82.7367 21.1108 84.9322 22.1612 85.5676 23.996L87.4574 23.3415C86.4261 20.3633 82.9967 18.8642 79.9379 20.0523L80.6621 21.9166ZM85.5666 23.9932C86.0462 25.3917 85.5754 26.9201 84.2709 27.8982L85.4708 29.4984C87.4246 28.0333 88.2371 25.6148 87.4584 23.3443L85.5666 23.9932ZM84.271 27.8981C79.4623 31.5028 65.8974 40.8479 62.6909 43.0575L63.8257 44.7043C67.0109 42.5094 80.621 33.1338 85.4706 29.4985L84.271 27.8981ZM62.2846 43.6531L59.8513 54.0554L61.7987 54.511L64.232 44.1087L62.2846 43.6531ZM60.109 54.9813C62.0121 56.9334 66.8922 61.9593 69.2298 64.5076L70.7036 63.1556C68.3412 60.5803 63.4379 55.5308 61.541 53.5851L60.109 54.9813ZM69.233 64.5111C70.1298 65.4794 70.9021 66.4934 71.2979 67.6412C71.6808 68.7518 71.7345 70.0548 71.0674 71.6704L72.916 72.4337C73.7655 70.3763 73.7337 68.5701 73.1886 66.9892C72.6563 65.4454 71.6577 64.1857 70.7003 63.1521L69.233 64.5111ZM71.0677 71.6696C69.6419 75.1138 67.0834 81.0413 65.173 85.4831L67.0103 86.2733C68.9166 81.8409 71.4831 75.8952 72.9156 72.4346L71.0677 71.6696ZM65.1733 85.4824L63.6483 89.0207L65.485 89.8123L67.01 86.274L65.1733 85.4824ZM63.6477 89.0222C63.2145 90.0319 62.2232 90.7109 61.0947 90.906C59.9598 91.1022 58.8802 90.7798 58.2567 90.0391L56.7266 91.327C57.9156 92.7395 59.7818 93.1627 61.4355 92.8768C63.0956 92.5898 64.7355 91.559 65.4856 89.8108L63.6477 89.0222ZM58.2564 90.0387C57.6668 89.3391 57.4144 88.3477 57.6394 87.2077L55.6773 86.8204C55.3523 88.4669 55.6915 90.0986 56.727 91.3274L58.2564 90.0387ZM57.6398 87.2058C58.2852 83.9024 59.7222 76.6771 60.36 73.4643L58.3983 73.0749C57.7611 76.2849 56.3231 83.515 55.6769 86.8223L57.6398 87.2058ZM59.7872 72.3567L50.2705 68.1034L49.4545 69.9294L58.9711 74.1826L59.7872 72.3567ZM48.8635 68.9725C48.5841 75.3391 47.947 89.8217 47.7224 93.7806L49.7192 93.8939C49.9447 89.9183 50.5826 75.4166 50.8615 69.0602L48.8635 68.9725ZM47.7224 93.7804C47.614 95.6843 46.2139 97.0088 44.3917 97.0088V99.0088C47.3111 99.0088 49.5526 96.8195 49.7192 93.8941L47.7224 93.7804ZM11.5245 23.8009L-0.700504 35.8007L0.700504 37.228L12.9255 25.2282L11.5245 23.8009ZM-0.700504 37.228L11.5245 49.2278L12.9255 47.8005L0.700504 35.8007L-0.700504 37.228ZM12.9254 49.2279L25.1545 37.2281L23.7538 35.8006L11.5246 47.8004L12.9254 49.2279ZM25.1545 35.8006L12.9254 23.8007L11.5246 25.2283L23.7538 37.2281L25.1545 35.8006ZM11.5246 31.0096L17.8621 37.2281L19.2629 35.8005L12.9254 29.582L11.5246 31.0096ZM17.8621 35.8005L11.5246 42.019L12.9254 43.4466L19.2629 37.2281L17.8621 35.8005ZM12.9256 42.0193L6.59227 35.8008L5.19106 37.2279L11.5244 43.4464L12.9256 42.0193ZM6.59227 37.2279L12.9256 31.0094L11.5244 29.5823L5.19106 35.8008L6.59227 37.2279Z" fill="#357BCD" mask="url(#path-1-outside-1_144_54)"/>
</svg>
