<svg width="40" height="40" viewBox="0 0 40 40" fill="none" xmlns="http://www.w3.org/2000/svg">
<path d="M40 2.22222C40 1.16 39.1578 0 37.7778 0H2.22222C0.844444 0 0 1.15333 0 2.22222V37.7778C0 39.1578 1.15556 40 2.22222 40H37.7778C38.84 40 40 39.1578 40 37.7778V2.22222ZM33.3333 27.2222C33.3333 28.1422 32.5867 28.8889 31.6667 28.8889H21.6667C20.7467 28.8889 20 28.1422 20 27.2222C20 26.3022 20.7467 25.5556 21.6667 25.5556H31.6667C32.5867 25.5556 33.3333 26.3022 33.3333 27.2222ZM7.17333 26.0289C6.83778 25.7289 6.66667 25.3156 6.66667 24.8978C6.66667 24.0644 7.34222 23.3822 8.18445 23.3822C8.54445 23.3822 8.90444 23.5089 9.19556 23.7667L10.8533 25.2444L14.5422 21.2111C14.8444 20.8844 15.2511 20.72 15.6622 20.72C16.5089 20.72 17.1822 21.4022 17.1822 22.2356C17.1822 22.5978 17.0511 22.9644 16.7844 23.2556L12.0822 28.3956C11.7844 28.7222 11.3733 28.8889 10.9622 28.8889C10.6022 28.8889 10.24 28.7622 9.95111 28.5044L7.17333 26.0289ZM33.3333 20.0044C33.3333 20.9244 32.5867 21.6711 31.6667 21.6711H21.6667C20.7467 21.6711 20 20.9244 20 20.0044C20 19.0844 20.7467 18.3378 21.6667 18.3378H31.6667C32.5867 18.3378 33.3333 19.0844 33.3333 20.0044ZM7.17333 16.42V16.4222C6.83778 16.1222 6.66667 15.7067 6.66667 15.2911C6.66667 14.4556 7.34222 13.7756 8.18445 13.7756C8.54445 13.7756 8.90444 13.9022 9.19556 14.16L10.8533 15.6356L14.5422 11.6022C14.8444 11.2756 15.2511 11.1111 15.6622 11.1111C16.5089 11.1111 17.1822 11.7956 17.1822 12.6267C17.1822 12.9911 17.0511 13.3578 16.7844 13.6489L12.0822 18.7889C11.7844 19.1156 11.3733 19.28 10.9622 19.28C10.6022 19.28 10.24 19.1533 9.95111 18.8956L7.17333 16.42ZM33.3333 12.7778C33.3333 13.6978 32.5867 14.4444 31.6667 14.4444H21.6667C20.7467 14.4444 20 13.6978 20 12.7778C20 11.8578 20.7467 11.1111 21.6667 11.1111H31.6667C32.5867 11.1111 33.3333 11.8578 33.3333 12.7778Z" fill="#357BCD"/>
</svg>
