<svg width="100" height="84" viewBox="0 0 100 84" fill="none" xmlns="http://www.w3.org/2000/svg">
<path d="M25 42C25 51.1917 32.475 58.6667 41.6667 58.6667C49.0042 58.6667 55.175 53.8709 57.3958 47.275L66.6625 41.8959L66.6667 42C66.6667 55.8084 55.475 67 41.6667 67C27.8583 67 16.6667 55.8084 16.6667 42C16.6667 28.1917 27.8583 17 41.6667 17C46.1833 17 50.4083 18.2167 54.0625 20.3084L44.8542 25.6542C43.8208 25.4542 42.7583 25.3334 41.6667 25.3334C32.475 25.3334 25 32.8084 25 42ZM41.6667 33.6667C37.0625 33.6667 33.3333 37.4 33.3333 42C33.3333 46.6 37.0625 50.3334 41.6667 50.3334C46.2708 50.3334 50 46.6 50 42L49.9917 41.9375L63.9917 33.8125C68.0583 31.4584 75.2583 32.4125 79.4542 34.475L100 22.5459L86.8417 16.0084L87.5458 0.875041L66.9417 12.8334C66.65 17.5042 63.8833 24.2334 59.8375 26.5875L45.7417 34.7709C44.5333 34.0917 43.1542 33.6667 41.6667 33.6667ZM74.9792 41.6292L75 42C75 60.3792 60.0458 75.3334 41.6667 75.3334C23.2875 75.3334 8.33333 60.3792 8.33333 42C8.33333 23.6209 23.2875 8.66671 41.6667 8.66671C47.8125 8.66671 53.5542 10.3667 58.5042 13.2792C59.8958 10.8375 60.2875 6.84587 59.1125 4.19587C53.8 1.74171 47.9042 0.333374 41.6667 0.333374C18.6542 0.333374 0 18.9875 0 42C0 65.0125 18.6542 83.6667 41.6667 83.6667C63.4708 83.6667 81.3375 66.9125 83.1542 45.575C81.9 43.5625 78.7125 41.1542 74.9792 41.6292Z" fill="#357BCD"/>
</svg>
