<svg width="100" height="100" viewBox="0 0 100 100" fill="none" xmlns="http://www.w3.org/2000/svg">
<path d="M25 8.33333C27.3 8.33333 29.1667 10.2042 29.1667 12.5C29.1667 14.7958 27.3 16.6667 25 16.6667C22.7 16.6667 20.8333 14.7958 20.8333 12.5C20.8333 10.2042 22.7 8.33333 25 8.33333ZM87.5 45.8333C89.8 45.8333 91.6667 47.7 91.6667 50C91.6667 52.3 89.8 54.1667 87.5 54.1667C85.2 54.1667 83.3333 52.2958 83.3333 50C83.3333 47.7 85.2 45.8333 87.5 45.8333ZM25 83.3333C27.3 83.3333 29.1667 85.2042 29.1667 87.5C29.1667 89.7958 27.3 91.6667 25 91.6667C22.7 91.6667 20.8333 89.7958 20.8333 87.5C20.8333 85.2042 22.7 83.3333 25 83.3333ZM25 0C18.1 0 12.5 5.59583 12.5 12.5C12.5 19.4042 18.1 25 25 25C31.9 25 37.5 19.4042 37.5 12.5C37.5 5.59583 31.9 0 25 0ZM87.5 37.5C80.6 37.5 75 43.0958 75 50C75 56.9042 80.6 62.5 87.5 62.5C94.4 62.5 100 56.9042 100 50C100 43.0958 94.4 37.5 87.5 37.5ZM25 75C18.0958 75 12.5 80.5958 12.5 87.5C12.5 94.4042 18.0958 100 25 100C31.9 100 37.5 94.4042 37.5 87.5C37.5 80.5958 31.9 75 25 75ZM44.1167 4.25417L45.8333 4.16667C63.6708 4.16667 79.0875 14.375 86.6667 29.2542C83.6792 29.375 80.875 30.1292 78.3417 31.3833C71.8625 20.1208 59.7333 12.5 45.8333 12.5C45.8333 9.57083 45.2125 6.78333 44.1167 4.25417ZM86.6667 70.7458C79.0875 85.625 63.6708 95.8333 45.8333 95.8333L44.1167 95.7458C45.2125 93.2167 45.8333 90.4292 45.8333 87.5C59.7333 87.5 71.8625 79.8792 78.3417 68.6167C80.875 69.875 83.6792 70.6292 86.6667 70.7458ZM7.875 75.6875C2.90417 68.3583 0 59.5208 0 50C0 40.4792 2.90417 31.6417 7.875 24.3125C9.50833 26.6708 11.6292 28.6417 14.0708 30.1583C10.4583 35.9208 8.33333 42.7083 8.33333 50C8.33333 57.2917 10.4583 64.0792 14.0708 69.8417C11.6292 71.3583 9.50417 73.3292 7.875 75.6875Z" fill="#357BCD"/>
</svg>
